PathFileType	4	(X/Y/Z)	C:/Users/beibeiliu/ov580/test_trc/User2\sequence.17_training_dense_right.trc
DataRate	CameraRate	NumFrames	NumMarkers	Units	OrigDataRate	OrigDataStartFrame	OrigNumFrames
120	120	12	19	mm	120	110	438
Frame#	Time	ThumbCMC			ThumbMCP			ThumbIP			ThumbTip			IndexMCP			IndexPIP			IndexTip			MiddleMCP			MiddlePIP			MiddleTip			RingMCP			RingPIP			RingTip			PinkyMCP			PinkyPIP			PinkyTip			BackHand1			BackHand2			BackHand3	
		X0	Y0	Z0	X1	Y1	Z1	X2	Y2	Z2	X3	Y3	Z3	X4	Y4	Z4	X5	Y5	Z5	X6	Y6	Z6	X7	Y7	Z7	X8	Y8	Z8	X9	Y9	Z9	X10	Y10	Z10	X11	Y11	Z11	X12	Y12	Z12	X13	Y13	Z13	X14	Y14	Z14	X15	Y15	Z15	X16	Y16	Z16	X17	Y17	Z17	X18	Y18	Z18	
109	0.908333	79.8386	22.2103	43.7455	51.4523	21.003	22.1027	29.6178	13.4524	-10.3511	37.6029	-8.67193	-28.986	88.3904	25.9543	-38.6987	62.6575	13.984	-57.4236	43.0134	-1.66728	-26.4065	96.3839	3.71449	-53.78	64.7146	-6.05152	-63.63	49.934	-21.1804	-29.5383	100.926	-19.1974	-51.6036	73.9613	-29.2238	-60.9931	56.8424	-33.1857	-27.6965	105.962	-35.2133	-38.4845	74.6389	-43.2842	-49.7383	57.4116	-44.4598	-22.8328	130.235	-17.3009	6.29169	141.262	-18.4348	36.5661	120.585	13.6788	28.052	
110	0.916667	68.5151	17.5898	46.6477	39.8881	13.0238	25.9251	19.5497	7.58918	-2.73871	31.3104	-11.2946	-30.474	79.7423	27.0086	-32.7764	53.6957	12.332	-51.4295	38.1	-5.05877	-24.9141	89.9893	15.6084	-44.6614	60.738	-6.78961	-60.3953	48.3492	-23.7536	-27.2709	99.5842	-9.20309	-46.2043	69.4557	-21.8384	-57.8414	57.4293	-32.272	-29.5238	108.027	-28.06	-37.8303	78.7279	-36.6287	-49.8102	60.0259	-49.7694	-24.8492	127.506	-10.2651	10.6748	134.928	-12.6056	43.4147	111.567	19.5323	32.1544	
111	0.925	62.9955	8.51136	50.8913	34.7651	4.61712	31.2339	15.085	0.303107	1.82637	27.0067	-13.794	-25.9519	69.5219	30.5863	-28.2678	46.8676	13.4463	-48.062	35.7463	-8.60863	-22.1678	84.9667	19.1316	-41.1455	59.0164	0.792283	-59.5283	47.3586	-24.9681	-25.7936	96.8846	-2.49424	-44.6778	71.3535	-17.2074	-56.4817	59.6201	-34.4773	-25.7588	107.557	-19.841	-32.9096	81.8339	-33.217	-50.1455	65.726	-48.6796	-28.6148	120.209	0.965599	12.1935	132.936	-7.73685	43.7339	102.953	20.396	41.8317	
112	0.933333	57.5517	3.13036	54.5836	32.6332	-1.72222	30.9214	14.5617	-7.30867	2.30733	26.9192	-17.2147	-26.7295	59.8962	32.1816	-21.5943	43.9228	12.7186	-45.3433	37.5124	-12.0343	-25.3564	75.568	24.7445	-39.0944	59.7441	2.4289	-58.9102	47.1295	-25.1599	-29.2132	91.8525	6.48916	-42.3144	71.3613	-14.952	-56.2182	63.3832	-35.9798	-26.0444	109.342	-13.553	-33.2295	85.6027	-31.144	-52.4715	70.8933	-47.8486	-28.6931	119.845	5.86786	14.3883	128.609	-1.76436	46.8487	94.5238	18.7103	43.3755	
113	0.941667	53.5372	-3.23956	58.8992	26.1779	-9.91679	35.5517	13.1271	-12.6196	-0.988943	25.8748	-20.5775	-26.6471	57.9544	32.0917	-19.1315	40.455	17.9179	-43.3218	40.2313	-17.318	-24.6942	78.4854	25.8827	-34.1877	60.1739	1.40727	-57.7109	52.7454	-25.1628	-34.8726	91.0239	11.1826	-39.3186	78.0331	-11.7925	-58.3245	66.5014	-35.192	-29.212	110.173	-6.19839	-34.5952	87.2547	-23.4068	-51.6989	77.0992	-46.1228	-34.6663	115.188	8.81629	17.5041	124.441	-1.10961	52.5555	89.8027	16.6638	48.7363	
114	0.95	53.1858	-7.75182	55.2519	29.5298	-14.8574	33.91	18.2495	-18.6644	1.23757	32.1531	-20.7458	-27.8688	54.6081	32.3573	-18.1562	42.6864	16.0657	-44.2863	43.2805	-17.0292	-29.5703	78.5168	30.3503	-34.6213	61.5833	10.2742	-57.3771	55.9336	-23.0339	-37.1701	92.0603	16.9681	-38.0303	79.6413	-7.00173	-58.8906	72.724	-32.2412	-38.2635	115.668	-0.990694	-32.1758	94.5396	-19.7574	-54.2727	83.789	-42.9992	-38.8535	117.824	10.1878	23.2051	122.161	4.68926	51.1303	86.8202	15.2824	50.4689	
115	0.958333	55.2273	-12.2525	56.9965	29.1741	-18.6412	31.4029	18.1759	-22.022	-2.10468	36.8468	-23.85	-28.2344	58.9453	32.4617	-17.7535	45.1807	17.6818	-46.5724	43.0384	-17.0525	-32.0788	78.0452	33.6377	-32.1102	67.092	8.81896	-60.6082	59.3564	-23.3422	-37.1185	99.9475	18.7355	-35.4015	84.3839	1.83237	-59.6731	78.409	-29.2796	-41.7262	116.317	3.86972	-31.5298	99.2632	-13.5789	-54.0774	86.7092	-37.019	-41.2695	117.508	11.6518	24.0683	123.641	3.33172	53.4982	89.8792	17.7887	47.6691	
116	0.966667	60.4058	-10.7247	50.2772	34.0362	-19.0724	25.9928	21.5412	-22.6449	-8.4157	38.7953	-24.4432	-31.7367	62.0506	33.4735	-19.9935	48.4503	17.9241	-49.7683	52.2629	-16.7659	-37.0038	80.1928	35.8641	-34.0323	73.1176	11.6808	-61.9849	68.6556	-21.6257	-42.5196	101.473	22.6267	-39.1076	92.2057	4.51022	-62.415	83.3873	-24.9277	-45.9683	120.248	7.34638	-31.3705	109.332	-7.66704	-56.4037	91.798	-33.9497	-43.0844	118.08	15.2785	20.2325	126.309	5.70277	55.9898	89.7638	17.8502	49.8771	
117	0.975	63.7229	-10.3031	46.8931	36.8712	-18.824	23.6622	31.5628	-21.912	-11.2658	45.4651	-23.1946	-39.0017	63.6773	35.8308	-25.2284	54.8518	20.2428	-52.1696	56.3248	-14.9583	-42.5258	87.416	36.4844	-35.5121	77.8692	19.7126	-63.4694	73.2989	-19.3183	-46.8216	110.608	23.546	-39.6131	99.067	6.88413	-62.9622	86.6606	-24.8188	-45.5805	129.464	7.27248	-34.7732	116.802	-6.82164	-58.1482	97.9768	-34.328	-45.4994	121.795	15.7852	19.7583	132.414	3.73363	52.226	92.8758	19.2963	42.4661	
118	0.983333	64.4416	-8.95019	46.8117	43.5666	-16.2145	16.3566	33.7338	-22.7678	-14.9094	52.0063	-23.4392	-41.1033	71.5974	34.8983	-25.0289	62.6929	22.053	-55.8314	60.8471	-14.0779	-47.2736	95.0727	35.2036	-34.9362	86.3311	19.2146	-66.5832	82.5747	-19.5255	-50.7499	118.048	23.4539	-43.1613	106.842	2.93772	-65.5313	92.2549	-23.6958	-48.596	136.486	4.76194	-30.1877	124.566	-12.9549	-60.082	106.821	-33.2268	-49.3848	129.265	15.0335	21.1386	135.405	4.40905	51.321	98.2802	21.257	40.7221	
119	0.991667	67.4301	-7.89883	41.5666	45.8309	-16.0754	13.7837	40.3714	-22.2675	-18.3325	56.8574	-26.7941	-42.8017	78.0496	33.6675	-28.4076	73.37	18.6105	-60.0167	69.3704	-14.8371	-51.0273	102.867	34.8202	-41.6296	94.5485	14.3568	-70.0865	89.9267	-20.3293	-54.0818	122.281	20.4576	-40.9182	114.084	-0.32345	-66.8506	99.5244	-24.153	-50.5893	144.847	0.88145	-30.2747	129.555	-14.3284	-59.581	111.6	-36.6424	-48.6919	131.259	12.2515	20.4285	135.064	7.22741	49.3242	98.8383	19.6481	38.9029	
120	1	68.3676	-6.15383	40.7373	46.694	-14.5832	9.7266	43.7374	-23.7652	-22.2749	59.9298	-29.8061	-44.6767	86.2882	30.433	-37.6414	78.0151	14.6773	-63.6818	75.6216	-18.2519	-53.4179	106.964	30.3022	-45.4955	102.983	10.0487	-72.3781	91.7036	-25.9239	-54.168	128.911	14.2556	-43.601	121.389	-4.77737	-68.1648	105.774	-31.7727	-49.9249	148.765	-4.76435	-31.5198	137.39	-19.4795	-59.0838	115.046	-42.893	-46.7312	133.791	12.1373	15.2165	137.283	5.85816	52.1096	103.994	21.2067	36.534	
